<svg width="337" height="48" viewBox="0 0 337 48" fill="none" xmlns="http://www.w3.org/2000/svg">
<path d="M336.148 24.0137C334.735 32.8261 325.822 39.9903 316.303 39.9903C306.784 39.9903 300.226 32.8261 301.638 24.0137C303.051 15.2014 311.964 8.03711 321.483 8.03711C331.002 8.03711 337.56 15.2014 336.148 24.0137ZM326.427 24.0137C327.033 20.1793 324.174 17.0513 320.037 17.0513C315.899 17.0513 311.998 20.1793 311.392 24.0137C310.787 27.8481 313.646 30.9762 317.783 30.9762C321.92 30.9762 325.822 27.8481 326.427 24.0137Z" fill="#FFAF26"/>
<path d="M274.798 30.8416L265.144 29.1935C263.362 30.7744 261.209 31.5816 259.056 31.5816C256.298 31.5816 254.011 30.2026 252.968 27.9826C252.8 27.6463 253.137 27.2427 253.54 27.2427H276.715C277.085 26.2336 277.421 25.0228 277.589 24.0137C277.825 22.5001 277.858 20.9866 277.589 19.5066C277.421 18.363 277.085 17.2531 276.614 16.2104L276.378 15.7059C276.311 15.5713 276.244 15.4704 276.21 15.3359L276.076 15.0668C276.076 15.0668 275.941 14.7977 275.84 14.6632C275.739 14.495 275.638 14.3268 275.537 14.1587L275.437 14.0241C275.437 14.0241 275.235 13.7551 275.167 13.6541L275.1 13.5532L274.865 13.7214L275.067 13.5196C274.932 13.3178 274.764 13.116 274.562 12.9142L274.461 12.8133C274.461 12.8133 274.226 12.5442 274.125 12.4433H274.091C273.957 12.2415 273.822 12.1069 273.654 11.9724L273.519 11.8379C273.318 11.6361 273.116 11.4679 272.914 11.2997C272.88 11.2661 272.813 11.2324 272.779 11.1988H272.746C272.51 10.9634 272.241 10.7952 271.972 10.627C271.703 10.4252 271.299 10.1897 271.03 10.0216C270.963 9.98794 270.896 9.9543 270.795 9.88703L270.627 10.0888L270.761 9.8534H270.728C270.728 9.8534 270.492 9.71886 270.358 9.65159H270.29C270.021 9.48341 269.752 9.34887 269.483 9.24797H269.416C269.416 9.24797 269.08 9.07979 268.911 9.01252C268.844 9.01252 268.777 8.97889 268.743 8.94525C268.541 8.87798 268.34 8.81071 268.138 8.74344H268.104C267.902 8.67617 267.667 8.6089 267.398 8.54163L267.196 8.47436C266.725 8.37346 266.254 8.27255 265.783 8.20528H265.582C265.077 8.10438 264.572 8.07074 264.068 8.03711H263.866C263.563 8.03711 263.328 8.03711 263.093 8.03711C262.857 8.03711 262.588 8.03711 262.285 8.03711C262.218 8.03711 262.151 8.03711 262.083 8.03711H262.05C261.848 8.03711 261.646 8.03711 261.444 8.07074H261.377C261.377 8.07074 261.276 8.07074 261.209 8.07074C260.906 8.07074 260.671 8.13801 260.435 8.17165H260.402C260.166 8.20528 259.796 8.27255 259.595 8.30619H259.426C259.225 8.37346 259.056 8.40709 258.855 8.44073H258.787C258.787 8.44073 258.686 8.47436 258.619 8.508C258.35 8.57527 258.115 8.64254 257.846 8.70981C257.576 8.77708 257.341 8.84435 257.106 8.94525C257.038 8.94525 257.005 8.97889 256.937 9.01252H256.87C256.668 9.07979 256.5 9.14706 256.332 9.21433H256.265C256.265 9.21433 256.164 9.2816 256.096 9.2816C255.861 9.38251 255.592 9.48341 255.357 9.58432C255.121 9.68522 254.886 9.78613 254.65 9.88703C254.583 9.88703 254.549 9.9543 254.482 9.9543H254.448C254.28 10.0552 254.112 10.1561 253.91 10.2234L253.708 10.3243C253.473 10.4588 253.238 10.5597 253.036 10.6943C250.782 11.9724 248.73 13.6878 247.116 15.6722C246.948 15.8741 246.813 16.0759 246.645 16.2777L246.443 16.5468C246.443 16.5468 246.376 16.6477 246.342 16.6813C246.309 16.7149 246.275 16.7822 246.241 16.8158L246.141 16.9504C246.141 16.9504 246.073 17.0513 246.04 17.0849C245.905 17.2867 245.771 17.5222 245.636 17.724C245.401 18.094 245.165 18.4976 244.963 18.9348C244.257 20.2802 243.752 21.6929 243.45 23.1056C243.382 23.3747 243.349 23.6437 243.282 23.9128C243.214 24.1819 243.214 24.451 243.181 24.7201C243.08 25.5273 243.08 26.3345 243.113 27.1081C243.113 27.3772 243.147 27.6463 243.181 27.8817C243.214 28.1845 243.282 28.5208 243.349 28.8908C243.483 29.5635 243.652 30.2362 243.887 30.8753C243.887 30.9089 243.921 30.9762 243.954 31.0098V31.1107C243.954 31.1107 244.122 31.447 244.19 31.6152V31.6825C244.19 31.6825 244.358 32.0188 244.459 32.187C245.434 34.1378 246.914 35.8532 248.764 37.165C248.932 37.2995 249.134 37.4004 249.336 37.535L249.504 37.6359C249.504 37.6359 249.807 37.8041 249.941 37.905H249.975C249.975 37.905 250.076 37.9722 250.109 38.0059C250.311 38.1068 250.513 38.2077 250.715 38.3086C250.917 38.4095 251.152 38.5104 251.354 38.6113C251.388 38.6113 251.455 38.6449 251.488 38.6786H251.522C251.522 38.6786 251.858 38.8131 252.027 38.8804H252.06C252.06 38.8804 252.161 38.9476 252.228 38.9476C252.464 39.0149 252.666 39.1158 252.901 39.1831C253.103 39.2504 253.338 39.3176 253.607 39.3849C253.675 39.3849 253.708 39.3849 253.776 39.4185H253.843C254.011 39.4858 254.213 39.5194 254.381 39.5531H254.583C254.785 39.6203 254.987 39.6876 255.188 39.6876H255.323C255.558 39.6876 255.794 39.7549 256.063 39.7885C256.13 39.7885 256.164 39.7885 256.231 39.7885H256.298C256.5 39.7885 256.668 39.8222 256.87 39.8222H256.937C256.937 39.8222 257.038 39.8222 257.106 39.8222C257.408 39.8222 257.677 39.8222 257.913 39.8222C258.148 39.8222 258.417 39.8222 258.72 39.8222H258.922C259.426 39.7885 259.964 39.7213 260.503 39.654H260.704C261.209 39.5531 261.714 39.4522 262.218 39.3513H262.42C262.723 39.2504 262.958 39.1831 263.193 39.1158H263.227C263.463 39.0486 263.664 38.9813 263.9 38.914L264.135 38.8467C264.303 38.7795 264.505 38.7122 264.707 38.6449H264.774C265.077 38.5104 265.38 38.3759 265.716 38.2413H265.817C265.817 38.2413 266.12 38.0731 266.254 38.0059H266.322C266.322 38.0059 266.49 37.905 266.591 37.8713H266.691C267.061 37.6359 267.398 37.4677 267.734 37.2659H267.835C268.138 37.0641 268.441 36.8623 268.743 36.6941L268.979 36.5596C269.248 36.3914 269.483 36.2232 269.752 36.0214L269.618 35.8532L269.786 36.0214L269.954 35.9205C270.156 35.786 270.324 35.6514 270.526 35.4832H270.56C270.56 35.4832 270.896 35.1805 271.03 35.0796L271.165 34.9787C271.4 34.7769 271.636 34.5751 271.871 34.3733L272.006 34.2724C272.006 34.2724 272.275 34.0033 272.409 33.8688L272.51 33.7679C272.51 33.7679 272.645 33.6333 272.746 33.5324L272.88 33.3979C273.116 33.1624 273.318 32.927 273.587 32.6243C273.788 32.3888 273.957 32.187 274.125 31.9852L274.293 31.7498C274.461 31.548 274.73 31.1443 274.966 30.808L274.798 30.8416ZM254.717 19.9103C255.525 17.6567 258.855 15.9077 262.05 15.9077C265.582 15.9077 268.071 17.6567 268.104 19.9103C268.104 20.213 267.835 20.482 267.499 20.482H255.155C254.818 20.482 254.617 20.213 254.751 19.9103H254.717Z" fill="#FFAF26"/>
<path d="M302.815 17.4227L304.295 8.13942C297.905 7.76944 293.33 10.5948 293.33 10.5948L293.767 8.00488H283.643L278.564 39.8908H289.26L290.572 31.5494L291.749 24.1833C291.749 24.1833 293.498 15.7409 302.782 17.389" fill="#FFAF26"/>
<path d="M232.889 0L227.608 33.4668C227.07 36.7967 229.727 39.8574 233.091 39.8574H237.295L243.585 0H232.922H232.889Z" fill="#FFAF26"/>
<path d="M218.19 4.67483C217.753 2.08494 215.499 0.0332031 212.708 0.0332031H208.503L207.763 4.67483L206.149 14.8662H212.338C214.827 14.8662 216.946 13.1508 217.45 10.7628L218.123 6.42385C218.224 5.81842 218.224 5.24662 218.123 4.67483H218.19Z" fill="#FFAF26"/>
<path d="M209.042 25.0586C206.553 25.0586 204.434 26.774 203.93 29.1621L203.257 33.5346C203.156 34.14 203.156 34.7118 203.257 35.2836C203.694 37.8399 205.948 39.9253 208.739 39.9253H212.944L213.684 35.2836L215.298 25.0922H209.076L209.042 25.0586Z" fill="#FFAF26"/>
<path d="M215.231 25.0585H224.481C227.07 25.0585 229.257 23.2086 229.66 20.6524L230.569 14.8671H216.812L217.451 10.7637C216.946 13.1518 214.827 14.8671 212.338 14.8671H206.15H196.866C194.276 14.8671 192.09 16.7171 191.686 19.2733L190.778 25.0585H204.535L203.896 29.162C204.434 26.7739 206.519 25.0585 209.008 25.0585H215.231Z" fill="#FFAF26"/>
<path d="M85.6345 24.0176C84.2218 32.83 75.3085 39.9942 65.7898 39.9942C56.2711 39.9942 49.7123 32.83 51.125 24.0176C52.5377 15.2053 61.4509 8.04102 70.9696 8.04102C80.4883 8.04102 87.0471 15.2053 85.6345 24.0176ZM75.914 24.0176C76.5194 20.1832 73.6604 17.0552 69.5233 17.0552C65.3862 17.0552 61.4846 20.1832 60.8791 24.0176C60.2737 27.852 63.1327 30.9801 67.2698 30.9801C71.4069 30.9801 75.3085 27.852 75.914 24.0176Z" fill="#2257B8"/>
<path d="M153.746 30.8778L144.093 29.2296C142.31 30.8105 140.158 31.6177 138.005 31.6177C135.247 31.6177 132.96 30.2387 131.917 28.0188C131.749 27.6824 132.085 27.2788 132.489 27.2788H155.663C156.033 26.2698 156.37 25.0589 156.538 24.0499C156.773 22.5363 156.807 21.0227 156.538 19.5428C156.37 18.3992 156.033 17.2892 155.563 16.2465L155.327 15.742C155.26 15.6075 155.193 15.5066 155.159 15.372L155.024 15.103C155.024 15.103 154.89 14.8339 154.789 14.6993C154.688 14.5312 154.587 14.363 154.486 14.1948L154.385 14.0603C154.385 14.0603 154.184 13.7912 154.116 13.6903L154.049 13.5894L153.814 13.7576L154.015 13.5557C153.881 13.3539 153.713 13.1521 153.511 12.9503L153.41 12.8494C153.41 12.8494 153.174 12.5803 153.074 12.4794H153.04C152.905 12.2776 152.771 12.1431 152.603 12.0085L152.468 11.874C152.266 11.6722 152.065 11.504 151.863 11.3358C151.829 11.3022 151.762 11.2686 151.728 11.2349H151.695C151.459 10.9995 151.19 10.8313 150.921 10.6631C150.652 10.4613 150.248 10.2259 149.979 10.0577C149.912 10.0241 149.845 9.99044 149.744 9.92317L149.576 10.125L149.71 9.88953H149.676C149.676 9.88953 149.441 9.75499 149.306 9.68772H149.239C148.97 9.51955 148.701 9.38501 148.432 9.2841H148.365C148.365 9.2841 148.028 9.11593 147.86 9.04866C147.793 9.04866 147.726 9.01502 147.692 8.98139C147.49 8.91412 147.288 8.84685 147.087 8.77958H147.053C146.851 8.71231 146.616 8.64504 146.347 8.57777L146.145 8.5105C145.674 8.40959 145.203 8.30869 144.732 8.24142H144.53C144.026 8.14051 143.521 8.10688 143.017 8.07324H142.815C142.512 8.07324 142.277 8.07324 142.041 8.07324C141.806 8.07324 141.537 8.07324 141.234 8.07324C141.167 8.07324 141.1 8.07324 141.032 8.07324H140.999C140.797 8.07324 140.595 8.07324 140.393 8.10688H140.326C140.326 8.10688 140.225 8.10688 140.158 8.10688C139.855 8.10688 139.62 8.17415 139.384 8.20778H139.35C139.115 8.24142 138.745 8.30869 138.543 8.34232H138.375C138.173 8.40959 138.005 8.44323 137.803 8.47686H137.736C137.736 8.47686 137.635 8.5105 137.568 8.54413C137.299 8.6114 137.063 8.67867 136.794 8.74594C136.525 8.81321 136.29 8.88048 136.054 8.98139C135.987 8.98139 135.953 9.01502 135.886 9.04866H135.819C135.617 9.11593 135.449 9.1832 135.281 9.25047H135.213C135.213 9.25047 135.112 9.31774 135.045 9.31774C134.81 9.41864 134.541 9.51955 134.305 9.62045C134.07 9.72136 133.834 9.82226 133.599 9.92317C133.532 9.92317 133.498 9.99044 133.431 9.99044H133.397C133.229 10.0913 133.061 10.1922 132.859 10.2595L132.657 10.3604C132.422 10.495 132.186 10.5959 131.984 10.7304C129.731 12.0085 127.679 13.7239 126.065 15.7084C125.896 15.9102 125.762 16.112 125.594 16.3138L125.392 16.5829C125.392 16.5829 125.325 16.6838 125.291 16.7174C125.257 16.7511 125.224 16.8183 125.19 16.852L125.089 16.9865C125.089 16.9865 125.022 17.0874 124.988 17.1211C124.854 17.3229 124.719 17.5583 124.585 17.7601C124.349 18.1301 124.114 18.5337 123.912 18.971C123.206 20.3164 122.701 21.729 122.398 23.1417C122.331 23.4108 122.298 23.6799 122.23 23.9489C122.163 24.218 122.163 24.4871 122.129 24.7562C122.028 25.5634 122.028 26.3707 122.062 27.1443C122.062 27.4134 122.096 27.6824 122.129 27.9179C122.163 28.2206 122.23 28.5569 122.298 28.9269C122.432 29.5996 122.6 30.2723 122.836 30.9114C122.836 30.945 122.869 31.0123 122.903 31.0459V31.1468C122.903 31.1468 123.071 31.4832 123.138 31.6514V31.7186C123.138 31.7186 123.307 32.055 123.407 32.2232C124.383 34.174 125.863 35.8894 127.713 37.2011C127.881 37.3357 128.083 37.4366 128.285 37.5711L128.453 37.672C128.453 37.672 128.755 37.8402 128.89 37.9411H128.924C128.924 37.9411 129.025 38.0084 129.058 38.042C129.26 38.1429 129.462 38.2438 129.664 38.3447C129.865 38.4456 130.101 38.5465 130.303 38.6474C130.336 38.6474 130.404 38.6811 130.437 38.7147H130.471C130.471 38.7147 130.807 38.8492 130.975 38.9165H131.009C131.009 38.9165 131.11 38.9838 131.177 38.9838C131.413 39.0511 131.614 39.152 131.85 39.2192C132.052 39.2865 132.287 39.3538 132.556 39.421C132.623 39.421 132.657 39.421 132.724 39.4547H132.792C132.96 39.5219 133.162 39.5556 133.33 39.5892H133.532C133.733 39.6565 133.935 39.7238 134.137 39.7238H134.272C134.507 39.7238 134.742 39.791 135.012 39.8247C135.079 39.8247 135.112 39.8247 135.18 39.8247H135.247C135.449 39.8247 135.617 39.8583 135.819 39.8583H135.886C135.886 39.8583 135.987 39.8583 136.054 39.8583C136.357 39.8583 136.626 39.8583 136.861 39.8583C137.097 39.8583 137.366 39.8583 137.669 39.8583H137.871C138.375 39.8247 138.913 39.7574 139.451 39.6901H139.653C140.158 39.5892 140.662 39.4883 141.167 39.3874H141.369C141.671 39.2865 141.907 39.2192 142.142 39.152H142.176C142.411 39.0847 142.613 39.0174 142.849 38.9501L143.084 38.8829C143.252 38.8156 143.454 38.7483 143.656 38.6811H143.723C144.026 38.5465 144.328 38.412 144.665 38.2774H144.766C144.766 38.2774 145.068 38.1093 145.203 38.042H145.27C145.27 38.042 145.438 37.9411 145.539 37.9075H145.64C146.01 37.672 146.347 37.5038 146.683 37.302H146.784C147.087 37.1002 147.389 36.8984 147.692 36.7302L147.927 36.5957C148.196 36.4275 148.432 36.2593 148.701 36.0575L148.566 35.8894L148.735 36.0575L148.903 35.9566C149.105 35.8221 149.273 35.6876 149.475 35.5194H149.508C149.508 35.5194 149.845 35.2167 149.979 35.1158L150.114 35.0149C150.349 34.813 150.585 34.6112 150.82 34.4094L150.955 34.3085C150.955 34.3085 151.224 34.0394 151.358 33.9049L151.459 33.804C151.459 33.804 151.594 33.6695 151.695 33.5686L151.829 33.434C152.065 33.1986 152.266 32.9631 152.535 32.6604C152.737 32.425 152.905 32.2232 153.074 32.0213L153.242 31.7859C153.41 31.5841 153.679 31.1805 153.914 30.8441L153.746 30.8778ZM133.666 19.9464C134.473 17.6928 137.803 15.9438 140.999 15.9438C144.53 15.9438 147.019 17.6928 147.053 19.9464C147.053 20.2491 146.784 20.5182 146.447 20.5182H134.103C133.767 20.5182 133.565 20.2491 133.7 19.9464H133.666Z" fill="#2257B8"/>
<path d="M97.2042 39.893L100.164 21.7974C100.366 20.6538 100.601 19.2075 101.274 18.1312C101.879 17.1558 103.427 16.5503 105.31 16.5503C106.319 16.5503 107.059 16.7521 107.597 17.223C107.934 17.4921 108.169 17.8621 108.337 18.2993C108.674 19.342 108.539 20.6538 108.337 21.7637L105.411 39.8594H116.141L119.168 21.2929C119.908 16.7858 119.74 14.2631 116.948 11.1351C116.746 10.9333 116.544 10.7315 116.309 10.5297C116.309 10.5297 113.282 7.90614 108.405 7.93977C103.528 7.97341 101.341 10.9669 101.341 10.9669L101.779 7.93977H91.6545L86.5083 39.8257H97.2379L97.2042 39.893Z" fill="#2257B8"/>
<path d="M181.764 8.00781L173.052 23.9508L169.218 8.00781H159.06L165.484 36.3621C165.484 36.3621 165.484 36.5639 165.451 36.6984L160.035 47.9998H170.731L177.526 35.3194L192.392 8.04145H181.73L181.764 8.00781Z" fill="#2257B8"/>
<path d="M44.0618 0C41.7746 0 39.6556 1.04268 38.2766 2.85897L24.9908 20.4837L18.9029 4.91071C17.7593 1.95083 14.9003 0 11.7722 0H6.28974L0 39.9247H10.4268L11.0323 35.9558L12.9158 23.309V23.3763L13.2185 21.56L20.1474 39.8911H25.5962L37.5703 21.56L34.5431 39.8911H45.239L51.5961 0H44.0618Z" fill="#2257B8"/>
</svg>